{
    "asset": {
        "generator": "Khronos glTF Blender I/O v1.8.19",
        "version": "2.0"
    },
    "scene": 0,
    "scenes": [
        {
            "name": "Scene",
            "nodes": [
                7,
                8,
                9
            ]
        }
    ],
    "nodes": [
        {
            "name": "Bone.005",
            "rotation": [
                -0.16348667442798615,
                1.4920759383585391e-07,
                -1.1738898048063717e-11,
                0.9865455627441406
            ],
            "translation": [
                1.3322676295501878e-15,
                0.7423884868621826,
                4.6566128730773926e-09
            ]
        },
        {
            "children": [
                0
            ],
            "name": "Bone.002",
            "rotation": [
                -0.002064333064481616,
                -1.0665221594763352e-07,
                9.335665573928509e-10,
                0.9999979734420776
            ],
            "scale": [
                1,
                1.0000001192092896,
                1.0000001192092896
            ],
            "translation": [
                8.576919251592537e-15,
                0.9043449759483337,
                -1.0920613746634444e-08
            ]
        },
        {
            "children": [
                1
            ],
            "name": "Bone.001",
            "rotation": [
                5.2837187958232334e-09,
                0.9992448091506958,
                -0.038856763392686844,
                7.543854962932528e-08
            ],
            "scale": [
                1,
                1.0000001192092896,
                1
            ],
            "translation": [
                5.956818493872175e-15,
                1.086276650428772,
                -2.974116597442844e-08
            ]
        },
        {
            "name": "Bone.003",
            "rotation": [
                -0.46226081252098083,
                -0.5568000078201294,
                -0.2328243851661682,
                0.6496779918670654
            ],
            "scale": [
                1.0000001192092896,
                1,
                1.0000001192092896
            ],
            "translation": [
                0.2808980941772461,
                0.9403447508811951,
                -0.1286454200744629
            ]
        },
        {
            "name": "Bone.004",
            "rotation": [
                -0.4736154079437256,
                0.5558608174324036,
                0.246824711561203,
                0.6370123624801636
            ],
            "scale": [
                1.0000001192092896,
                0.9999999403953552,
                0.9999999403953552
            ],
            "translation": [
                -0.25935623049736023,
                0.9577975273132324,
                -0.12929144501686096
            ]
        },
        {
            "children": [
                2,
                3,
                4
            ],
            "name": "Bone",
            "rotation": [
                0.03971327096223831,
                1.0659194771278635e-07,
                4.236458739370619e-09,
                0.9992111325263977
            ],
            "translation": [
                1.707033968931064e-16,
                3.953464984893799,
                0.1380569338798523
            ]
        },
        {
            "mesh": 0,
            "name": "orca",
            "skin": 0
        },
        {
            "children": [
                6,
                5
            ],
            "name": "Armature.001",
            "rotation": [
                -0.7193397283554077,
                0,
                0,
                0.6946584582328796
            ],
            "scale": [
                2.6016106605529785,
                2.6016106605529785,
                2.6016106605529785
            ],
            "translation": [
                0,
                -0.12034916877746582,
                3.479184865951538
            ]
        },
        {
            "name": "Armature",
            "rotation": [
                -0.7179017663002014,
                0,
                0,
                0.6961444616317749
            ],
            "scale": [
                2.3667283058166504,
                2.3667283058166504,
                2.3667283058166504
            ]
        },
        {
            "name": "Light"
        }
    ],
    "animations": [
        {
            "channels": [
                {
                    "sampler": 0,
                    "target": {
                        "node": 5,
                        "path": "translation"
                    }
                },
                {
                    "sampler": 1,
                    "target": {
                        "node": 5,
                        "path": "rotation"
                    }
                },
                {
                    "sampler": 2,
                    "target": {
                        "node": 2,
                        "path": "translation"
                    }
                },
                {
                    "sampler": 3,
                    "target": {
                        "node": 2,
                        "path": "rotation"
                    }
                },
                {
                    "sampler": 4,
                    "target": {
                        "node": 1,
                        "path": "translation"
                    }
                },
                {
                    "sampler": 5,
                    "target": {
                        "node": 1,
                        "path": "rotation"
                    }
                },
                {
                    "sampler": 6,
                    "target": {
                        "node": 0,
                        "path": "translation"
                    }
                },
                {
                    "sampler": 7,
                    "target": {
                        "node": 0,
                        "path": "rotation"
                    }
                },
                {
                    "sampler": 8,
                    "target": {
                        "node": 3,
                        "path": "translation"
                    }
                },
                {
                    "sampler": 9,
                    "target": {
                        "node": 3,
                        "path": "rotation"
                    }
                },
                {
                    "sampler": 10,
                    "target": {
                        "node": 4,
                        "path": "translation"
                    }
                },
                {
                    "sampler": 11,
                    "target": {
                        "node": 4,
                        "path": "rotation"
                    }
                }
            ],
            "name": "ATTACK",
            "samplers": [
                {
                    "input": 7,
                    "interpolation": "LINEAR",
                    "output": 8
                },
                {
                    "input": 7,
                    "interpolation": "LINEAR",
                    "output": 9
                },
                {
                    "input": 10,
                    "interpolation": "LINEAR",
                    "output": 11
                },
                {
                    "input": 7,
                    "interpolation": "LINEAR",
                    "output": 12
                },
                {
                    "input": 10,
                    "interpolation": "LINEAR",
                    "output": 13
                },
                {
                    "input": 7,
                    "interpolation": "LINEAR",
                    "output": 14
                },
                {
                    "input": 10,
                    "interpolation": "LINEAR",
                    "output": 15
                },
                {
                    "input": 7,
                    "interpolation": "LINEAR",
                    "output": 16
                },
                {
                    "input": 10,
                    "interpolation": "LINEAR",
                    "output": 17
                },
                {
                    "input": 7,
                    "interpolation": "LINEAR",
                    "output": 18
                },
                {
                    "input": 10,
                    "interpolation": "LINEAR",
                    "output": 19
                },
                {
                    "input": 7,
                    "interpolation": "LINEAR",
                    "output": 20
                }
            ]
        },
        {
            "channels": [
                {
                    "sampler": 0,
                    "target": {
                        "node": 5,
                        "path": "translation"
                    }
                },
                {
                    "sampler": 1,
                    "target": {
                        "node": 5,
                        "path": "rotation"
                    }
                },
                {
                    "sampler": 2,
                    "target": {
                        "node": 2,
                        "path": "translation"
                    }
                },
                {
                    "sampler": 3,
                    "target": {
                        "node": 2,
                        "path": "rotation"
                    }
                },
                {
                    "sampler": 4,
                    "target": {
                        "node": 1,
                        "path": "translation"
                    }
                },
                {
                    "sampler": 5,
                    "target": {
                        "node": 1,
                        "path": "rotation"
                    }
                },
                {
                    "sampler": 6,
                    "target": {
                        "node": 0,
                        "path": "translation"
                    }
                },
                {
                    "sampler": 7,
                    "target": {
                        "node": 0,
                        "path": "rotation"
                    }
                },
                {
                    "sampler": 8,
                    "target": {
                        "node": 3,
                        "path": "translation"
                    }
                },
                {
                    "sampler": 9,
                    "target": {
                        "node": 3,
                        "path": "rotation"
                    }
                },
                {
                    "sampler": 10,
                    "target": {
                        "node": 4,
                        "path": "translation"
                    }
                },
                {
                    "sampler": 11,
                    "target": {
                        "node": 4,
                        "path": "rotation"
                    }
                }
            ],
            "name": "swim",
            "samplers": [
                {
                    "input": 21,
                    "interpolation": "LINEAR",
                    "output": 22
                },
                {
                    "input": 23,
                    "interpolation": "LINEAR",
                    "output": 24
                },
                {
                    "input": 21,
                    "interpolation": "LINEAR",
                    "output": 25
                },
                {
                    "input": 23,
                    "interpolation": "LINEAR",
                    "output": 26
                },
                {
                    "input": 21,
                    "interpolation": "LINEAR",
                    "output": 27
                },
                {
                    "input": 23,
                    "interpolation": "LINEAR",
                    "output": 28
                },
                {
                    "input": 21,
                    "interpolation": "LINEAR",
                    "output": 29
                },
                {
                    "input": 23,
                    "interpolation": "LINEAR",
                    "output": 30
                },
                {
                    "input": 21,
                    "interpolation": "LINEAR",
                    "output": 31
                },
                {
                    "input": 21,
                    "interpolation": "LINEAR",
                    "output": 32
                },
                {
                    "input": 21,
                    "interpolation": "LINEAR",
                    "output": 33
                },
                {
                    "input": 21,
                    "interpolation": "LINEAR",
                    "output": 34
                }
            ]
        }
    ],
    "materials": [
        {
            "doubleSided": true,
            "name": "whale",
            "pbrMetallicRoughness": {}
        }
    ],
    "meshes": [
        {
            "name": "orca",
            "primitives": [
                {
                    "attributes": {
                        "POSITION": 0,
                        "NORMAL": 1,
                        "TEXCOORD_0": 2,
                        "JOINTS_0": 3,
                        "WEIGHTS_0": 4
                    },
                    "indices": 5,
                    "material": 0
                }
            ]
        }
    ],
    "skins": [
        {
            "inverseBindMatrices": 6,
            "joints": [
                5,
                2,
                1,
                0,
                3,
                4
            ],
            "name": "Armature.001"
        }
    ],
    "accessors": [
        {
            "bufferView": 0,
            "componentType": 5126,
            "count": 2047,
            "max": [
                2.3011670112609863,
                2.933537244796753,
                3.3537864685058594
            ],
            "min": [
                -2.3011670112609863,
                -0.96541428565979,
                -6.518695831298828
            ],
            "type": "VEC3"
        },
        {
            "bufferView": 1,
            "componentType": 5126,
            "count": 2047,
            "type": "VEC3"
        },
        {
            "bufferView": 2,
            "componentType": 5126,
            "count": 2047,
            "type": "VEC2"
        },
        {
            "bufferView": 3,
            "componentType": 5121,
            "count": 2047,
            "type": "VEC4"
        },
        {
            "bufferView": 4,
            "componentType": 5126,
            "count": 2047,
            "type": "VEC4"
        },
        {
            "bufferView": 5,
            "componentType": 5123,
            "count": 11994,
            "type": "SCALAR"
        },
        {
            "bufferView": 6,
            "componentType": 5126,
            "count": 6,
            "type": "MAT4"
        },
        {
            "bufferView": 7,
            "componentType": 5126,
            "count": 25,
            "max": [
                1.0416666666666667
            ],
            "min": [
                0.041666666666666664
            ],
            "type": "SCALAR"
        },
        {
            "bufferView": 8,
            "componentType": 5126,
            "count": 25,
            "type": "VEC3"
        },
        {
            "bufferView": 9,
            "componentType": 5126,
            "count": 25,
            "type": "VEC4"
        },
        {
            "bufferView": 10,
            "componentType": 5126,
            "count": 2,
            "max": [
                1.0416666666666667
            ],
            "min": [
                0.041666666666666664
            ],
            "type": "SCALAR"
        },
        {
            "bufferView": 11,
            "componentType": 5126,
            "count": 2,
            "type": "VEC3"
        },
        {
            "bufferView": 12,
            "componentType": 5126,
            "count": 25,
            "type": "VEC4"
        },
        {
            "bufferView": 13,
            "componentType": 5126,
            "count": 2,
            "type": "VEC3"
        },
        {
            "bufferView": 14,
            "componentType": 5126,
            "count": 25,
            "type": "VEC4"
        },
        {
            "bufferView": 15,
            "componentType": 5126,
            "count": 2,
            "type": "VEC3"
        },
        {
            "bufferView": 16,
            "componentType": 5126,
            "count": 25,
            "type": "VEC4"
        },
        {
            "bufferView": 17,
            "componentType": 5126,
            "count": 2,
            "type": "VEC3"
        },
        {
            "bufferView": 18,
            "componentType": 5126,
            "count": 25,
            "type": "VEC4"
        },
        {
            "bufferView": 19,
            "componentType": 5126,
            "count": 2,
            "type": "VEC3"
        },
        {
            "bufferView": 20,
            "componentType": 5126,
            "count": 25,
            "type": "VEC4"
        },
        {
            "bufferView": 21,
            "componentType": 5126,
            "count": 2,
            "max": [
                0.4166666666666667
            ],
            "min": [
                0.041666666666666664
            ],
            "type": "SCALAR"
        },
        {
            "bufferView": 22,
            "componentType": 5126,
            "count": 2,
            "type": "VEC3"
        },
        {
            "bufferView": 23,
            "componentType": 5126,
            "count": 10,
            "max": [
                0.4166666666666667
            ],
            "min": [
                0.041666666666666664
            ],
            "type": "SCALAR"
        },
        {
            "bufferView": 24,
            "componentType": 5126,
            "count": 10,
            "type": "VEC4"
        },
        {
            "bufferView": 25,
            "componentType": 5126,
            "count": 2,
            "type": "VEC3"
        },
        {
            "bufferView": 26,
            "componentType": 5126,
            "count": 10,
            "type": "VEC4"
        },
        {
            "bufferView": 27,
            "componentType": 5126,
            "count": 2,
            "type": "VEC3"
        },
        {
            "bufferView": 28,
            "componentType": 5126,
            "count": 10,
            "type": "VEC4"
        },
        {
            "bufferView": 29,
            "componentType": 5126,
            "count": 2,
            "type": "VEC3"
        },
        {
            "bufferView": 30,
            "componentType": 5126,
            "count": 10,
            "type": "VEC4"
        },
        {
            "bufferView": 31,
            "componentType": 5126,
            "count": 2,
            "type": "VEC3"
        },
        {
            "bufferView": 32,
            "componentType": 5126,
            "count": 2,
            "type": "VEC4"
        },
        {
            "bufferView": 33,
            "componentType": 5126,
            "count": 2,
            "type": "VEC3"
        },
        {
            "bufferView": 34,
            "componentType": 5126,
            "count": 2,
            "type": "VEC4"
        }
    ],
    "bufferViews": [
        {
            "buffer": 0,
            "byteLength": 24564,
            "byteOffset": 0
        },
        {
            "buffer": 0,
            "byteLength": 24564,
            "byteOffset": 24564
        },
        {
            "buffer": 0,
            "byteLength": 16376,
            "byteOffset": 49128
        },
        {
            "buffer": 0,
            "byteLength": 8188,
            "byteOffset": 65504
        },
        {
            "buffer": 0,
            "byteLength": 32752,
            "byteOffset": 73692
        },
        {
            "buffer": 0,
            "byteLength": 23988,
            "byteOffset": 106444
        },
        {
            "buffer": 0,
            "byteLength": 384,
            "byteOffset": 130432
        },
        {
            "buffer": 0,
            "byteLength": 100,
            "byteOffset": 130816
        },
        {
            "buffer": 0,
            "byteLength": 300,
            "byteOffset": 130916
        },
        {
            "buffer": 0,
            "byteLength": 400,
            "byteOffset": 131216
        },
        {
            "buffer": 0,
            "byteLength": 8,
            "byteOffset": 131616
        },
        {
            "buffer": 0,
            "byteLength": 24,
            "byteOffset": 131624
        },
        {
            "buffer": 0,
            "byteLength": 400,
            "byteOffset": 131648
        },
        {
            "buffer": 0,
            "byteLength": 24,
            "byteOffset": 132048
        },
        {
            "buffer": 0,
            "byteLength": 400,
            "byteOffset": 132072
        },
        {
            "buffer": 0,
            "byteLength": 24,
            "byteOffset": 132472
        },
        {
            "buffer": 0,
            "byteLength": 400,
            "byteOffset": 132496
        },
        {
            "buffer": 0,
            "byteLength": 24,
            "byteOffset": 132896
        },
        {
            "buffer": 0,
            "byteLength": 400,
            "byteOffset": 132920
        },
        {
            "buffer": 0,
            "byteLength": 24,
            "byteOffset": 133320
        },
        {
            "buffer": 0,
            "byteLength": 400,
            "byteOffset": 133344
        },
        {
            "buffer": 0,
            "byteLength": 8,
            "byteOffset": 133744
        },
        {
            "buffer": 0,
            "byteLength": 24,
            "byteOffset": 133752
        },
        {
            "buffer": 0,
            "byteLength": 40,
            "byteOffset": 133776
        },
        {
            "buffer": 0,
            "byteLength": 160,
            "byteOffset": 133816
        },
        {
            "buffer": 0,
            "byteLength": 24,
            "byteOffset": 133976
        },
        {
            "buffer": 0,
            "byteLength": 160,
            "byteOffset": 134000
        },
        {
            "buffer": 0,
            "byteLength": 24,
            "byteOffset": 134160
        },
        {
            "buffer": 0,
            "byteLength": 160,
            "byteOffset": 134184
        },
        {
            "buffer": 0,
            "byteLength": 24,
            "byteOffset": 134344
        },
        {
            "buffer": 0,
            "byteLength": 160,
            "byteOffset": 134368
        },
        {
            "buffer": 0,
            "byteLength": 24,
            "byteOffset": 134528
        },
        {
            "buffer": 0,
            "byteLength": 32,
            "byteOffset": 134552
        },
        {
            "buffer": 0,
            "byteLength": 24,
            "byteOffset": 134584
        },
        {
            "buffer": 0,
            "byteLength": 32,
            "byteOffset": 134608
        }
    ],
    "buffers": [
        {
            "byteLength": 134640,
            "uri": "scene.bin"
        }
    ]
}