{
    "asset": {
        "generator": "Khronos glTF Blender I/O v1.6.16",
        "version": "2.0"
    },
    "scene": 0,
    "scenes": [
        {
            "name": "Scene",
            "nodes": [
                0
            ]
        }
    ],
    "nodes": [
        {
            "mesh": 0,
            "name": "phantom_logoPose",
            "translation": [
                -0.07319240272045135,
                0.3650015592575073,
                0.07242119312286377
            ]
        }
    ],
    "materials": [
        {
            "doubleSided": true,
            "name": "mat_phantom_body",
            "pbrMetallicRoughness": {
                "metallicFactor": 0,
                "roughnessFactor": 0.5
            }
        },
        {
            "doubleSided": true,
            "name": "mat_phantom_eyes",
            "pbrMetallicRoughness": {
                "baseColorFactor": [
                    0,
                    0,
                    0,
                    1
                ],
                "metallicFactor": 0,
                "roughnessFactor": 0.5
            }
        }
    ],
    "meshes": [
        {
            "name": "Plane.001",
            "primitives": [
                {
                    "attributes": {
                        "POSITION": 0,
                        "NORMAL": 1,
                        "TEXCOORD_0": 2
                    },
                    "indices": 3,
                    "material": 0
                },
                {
                    "attributes": {
                        "POSITION": 4,
                        "NORMAL": 5,
                        "TEXCOORD_0": 6
                    },
                    "indices": 7,
                    "material": 1
                }
            ]
        }
    ],
    "accessors": [
        {
            "bufferView": 0,
            "componentType": 5126,
            "count": 20068,
            "max": [
                1.6035109758377075,
                2.6483516693115234,
                1.0629372596740723
            ],
            "min": [
                -1.460905909538269,
                -3.1773648262023926,
                -1.1472904682159424
            ],
            "type": "VEC3"
        },
        {
            "bufferView": 1,
            "componentType": 5126,
            "count": 20068,
            "type": "VEC3"
        },
        {
            "bufferView": 2,
            "componentType": 5126,
            "count": 20068,
            "type": "VEC2"
        },
        {
            "bufferView": 3,
            "componentType": 5123,
            "count": 113664,
            "type": "SCALAR"
        },
        {
            "bufferView": 4,
            "componentType": 5126,
            "count": 2214,
            "max": [
                0.16283942759037018,
                2.384063959121704,
                0.4119889736175537
            ],
            "min": [
                -0.35854876041412354,
                2.078874111175537,
                0.19470150768756866
            ],
            "type": "VEC3"
        },
        {
            "bufferView": 5,
            "componentType": 5126,
            "count": 2214,
            "type": "VEC3"
        },
        {
            "bufferView": 6,
            "componentType": 5126,
            "count": 2214,
            "type": "VEC2"
        },
        {
            "bufferView": 7,
            "componentType": 5123,
            "count": 10752,
            "type": "SCALAR"
        }
    ],
    "bufferViews": [
        {
            "buffer": 0,
            "byteLength": 240816,
            "byteOffset": 0
        },
        {
            "buffer": 0,
            "byteLength": 240816,
            "byteOffset": 240816
        },
        {
            "buffer": 0,
            "byteLength": 160544,
            "byteOffset": 481632
        },
        {
            "buffer": 0,
            "byteLength": 227328,
            "byteOffset": 642176
        },
        {
            "buffer": 0,
            "byteLength": 26568,
            "byteOffset": 869504
        },
        {
            "buffer": 0,
            "byteLength": 26568,
            "byteOffset": 896072
        },
        {
            "buffer": 0,
            "byteLength": 17712,
            "byteOffset": 922640
        },
        {
            "buffer": 0,
            "byteLength": 21504,
            "byteOffset": 940352
        }
    ],
    "buffers": [
        {
            "byteLength": 961856,
            "uri": "PhantomLogoPose2.bin"
        }
    ]
}