<svg xmlns="http://www.w3.org/2000/svg" width="38.43" height="63.77">
  <defs>
  </defs>
  <path fill="#fff" d="M13.52 7.45c-.12 1.18 2 1.7 1.9 0-.05-1.17-1.94-1.4-1.9 0M16.21 6.49s0 .25 0 .13c.14.55.35 1 1 1.12a.93.93 0 0 0 1.13-.67c.2-1.14-2-2-2.11-.58"/>
  <path fill="#fff" d="M30.34,34.26s.32,2.65.41,6.11c.06,2,0,3.93-.07,5.67a33,33,0,0,1-.77,5.63c-1.41,5.9-2,7.51-2,7.56s-.2.78-.67-.56c0,0-1.52-3.32-2.86-6.77-.77-2-1.42-3.82-1.95-5.51A40.31,40.31,0,0,1,21.1,41a1.21,1.21,0,0,0-.05-.18,1.06,1.06,0,0,0-1-.69h0c-.81,0-1.15.85-1.28,1.18-.24.6-1.15,3.61-1.9,6.18-.61,2.08-1.65,5.76-1.86,7-.16,1-.46,2.31-.79,1.37a81.14,81.14,0,0,1-3.48-7.82A54.12,54.12,0,0,1,9,42.84a14.26,14.26,0,0,1-.6-4.16.91.91,0,0,0-.67-.92.94.94,0,0,0-1,.48s-.26.53-.62,1.09-.73.39-.82.06a26.6,26.6,0,0,1-.48-2.69,58.8,58.8,0,0,1-.46-7.29v-.05a15.06,15.06,0,0,1,.76-4.79A18.91,18.91,0,0,1,7.28,20a20.83,20.83,0,0,1,4.44-4.88,1,1,0,0,0,.17-.18l.12-.17a2.06,2.06,0,0,0,.38-.69,1.66,1.66,0,0,0-.08-1v0s-.41-1-.75-2.27a7.47,7.47,0,0,1-.42-3.38A4.46,4.46,0,0,1,14.76,4a5,5,0,0,1,1.12-.14h0a3.12,3.12,0,0,1,2.18.85,8.46,8.46,0,0,1,2,3.74.91.91,0,0,0,.49.56A17.93,17.93,0,0,1,24,11.18a22.15,22.15,0,0,1,3.14,2.89,20.38,20.38,0,0,1,2.94,4.22A30,30,0,0,1,32,23a50.06,50.06,0,0,1,1.48,5.78,25.26,25.26,0,0,1,.53,5,6.07,6.07,0,0,1-.21,1.57c-.05.49-.61,0-1.05-.6S32,33.71,32,33.71a.9.9,0,0,0-.78-.45.69.69,0,0,0-.28.05.88.88,0,0,0-.61.95m5.14-5.85a45.35,45.35,0,0,0-3.54-11.07,22.46,22.46,0,0,0-3.24-4.65,24.44,24.44,0,0,0-3.42-3.15,22.83,22.83,0,0,0-3.39-2.16,9.58,9.58,0,0,0-2.44-4.16,5.1,5.1,0,0,0-3.57-1.4,7,7,0,0,0-1.6.19,7.2,7.2,0,0,0-3.39,1.76A6,6,0,0,0,9.12,6.89a9.65,9.65,0,0,0,.45,4.39c.29,1,.61,1.93.74,2.29v0a22.84,22.84,0,0,0-4.78,5.32,20.91,20.91,0,0,0-2.4,5.14,17.33,17.33,0,0,0-.82,5.39,58.93,58.93,0,0,0,.58,8.23,20.36,20.36,0,0,0,.63,2.94,4.56,4.56,0,0,0,.46,1,1.57,1.57,0,0,0,1.33.82,2.12,2.12,0,0,0,1.4-.6,44.91,44.91,0,0,0,2.14,6.91,80.89,80.89,0,0,0,3.59,8.07c.22.41.9,1.67,2.12,1.67.55,0,1.34-.26,1.91-1.52a8.79,8.79,0,0,0,.6-2.17c.24-1.42,1.76-6.68,2.78-10a78,78,0,0,0,2.64,7.85c1.37,3.51,2.66,6.31,2.91,6.81l.06.11a7.62,7.62,0,0,0,.76,1.34,2.12,2.12,0,0,0,1.71.91,1.9,1.9,0,0,0,1.74-1.24,4.7,4.7,0,0,0,.24-.75c.12-.37.71-2.24,2-7.68a46.45,46.45,0,0,0,.9-11.86c0-.88-.06-1.78-.12-2.68a2,2,0,0,0,1,.29,1.59,1.59,0,0,0,.83-.22c1-.56,1.47-1.81,1.52-3.81a26.53,26.53,0,0,0-.57-5.46"/>
</svg>
