{
    "asset" : {
        "generator" : "Khronos glTF Blender I/O v1.6.16",
        "version" : "2.0"
    },
    "scene" : 0,
    "scenes" : [
        {
            "name" : "Scene",
            "nodes" : [
                0
            ]
        }
    ],
    "nodes" : [
        {
            "mesh" : 0,
            "name" : "dude",
            "translation" : [
                0,
                -0.027287572622299194,
                0
            ]
        }
    ],
    "materials" : [
        {
            "doubleSided" : true,
            "name" : "Material",
            "pbrMetallicRoughness" : {
                "baseColorFactor" : [
                    0.36463797092437744,
                    0.36463797092437744,
                    0.36463797092437744,
                    1
                ],
                "metallicFactor" : 0,
                "roughnessFactor" : 0.5
            }
        },
        {
            "doubleSided" : true,
            "name" : "black",
            "pbrMetallicRoughness" : {
                "baseColorFactor" : [
                    0.009822015650570393,
                    0.009822015650570393,
                    0.009822015650570393,
                    1
                ],
                "metallicFactor" : 0,
                "roughnessFactor" : 0.5
            }
        }
    ],
    "meshes" : [
        {
            "name" : "dude",
            "primitives" : [
                {
                    "attributes" : {
                        "POSITION" : 0,
                        "NORMAL" : 1,
                        "COLOR_0" : 2
                    },
                    "indices" : 3,
                    "material" : 0
                },
                {
                    "attributes" : {
                        "POSITION" : 4,
                        "NORMAL" : 5,
                        "COLOR_0" : 6
                    },
                    "indices" : 7,
                    "material" : 1
                }
            ]
        }
    ],
    "accessors" : [
        {
            "bufferView" : 0,
            "componentType" : 5126,
            "count" : 13344,
            "max" : [
                0.5735918879508972,
                1.9809372425079346,
                0.34285515546798706
            ],
            "min" : [
                -0.573591947555542,
                0.0331248864531517,
                -0.3648300766944885
            ],
            "type" : "VEC3"
        },
        {
            "bufferView" : 1,
            "componentType" : 5126,
            "count" : 13344,
            "type" : "VEC3"
        },
        {
            "bufferView" : 2,
            "componentType" : 5123,
            "count" : 13344,
            "normalized" : true,
            "type" : "VEC4"
        },
        {
            "bufferView" : 3,
            "componentType" : 5123,
            "count" : 79872,
            "type" : "SCALAR"
        },
        {
            "bufferView" : 4,
            "componentType" : 5126,
            "count" : 674,
            "max" : [
                0.08994778990745544,
                1.8679450750350952,
                0.13832251727581024
            ],
            "min" : [
                -0.08994778990745544,
                1.7895482778549194,
                0.08454500883817673
            ],
            "type" : "VEC3"
        },
        {
            "bufferView" : 5,
            "componentType" : 5126,
            "count" : 674,
            "type" : "VEC3"
        },
        {
            "bufferView" : 6,
            "componentType" : 5123,
            "count" : 674,
            "normalized" : true,
            "type" : "VEC4"
        },
        {
            "bufferView" : 7,
            "componentType" : 5123,
            "count" : 3840,
            "type" : "SCALAR"
        }
    ],
    "bufferViews" : [
        {
            "buffer" : 0,
            "byteLength" : 160128,
            "byteOffset" : 0
        },
        {
            "buffer" : 0,
            "byteLength" : 160128,
            "byteOffset" : 160128
        },
        {
            "buffer" : 0,
            "byteLength" : 106752,
            "byteOffset" : 320256
        },
        {
            "buffer" : 0,
            "byteLength" : 159744,
            "byteOffset" : 427008
        },
        {
            "buffer" : 0,
            "byteLength" : 8088,
            "byteOffset" : 586752
        },
        {
            "buffer" : 0,
            "byteLength" : 8088,
            "byteOffset" : 594840
        },
        {
            "buffer" : 0,
            "byteLength" : 5392,
            "byteOffset" : 602928
        },
        {
            "buffer" : 0,
            "byteLength" : 7680,
            "byteOffset" : 608320
        }
    ],
    "buffers" : [
        {
            "byteLength" : 616000,
            "uri" : "phantom.bin"
        }
    ]
}
