{
    "asset" : {
        "generator" : "Khronos glTF Blender I/O v1.6.16",
        "version" : "2.0"
    },
    "scene" : 0,
    "scenes" : [
        {
            "name" : "Scene",
            "nodes" : [
                0,
                1
            ]
        }
    ],
    "nodes" : [
        {
            "mesh" : 0,
            "name" : "dude"
        },
        {
            "mesh" : 1,
            "name" : "Plane",
            "scale" : [
                4.992655277252197,
                4.992655277252197,
                4.992655277252197
            ]
        }
    ],
    "materials" : [
        {
            "doubleSided" : true,
            "name" : "Material",
            "pbrMetallicRoughness" : {
                "baseColorFactor" : [
                    0.36463797092437744,
                    0.36463797092437744,
                    0.36463797092437744,
                    1
                ],
                "metallicFactor" : 0,
                "roughnessFactor" : 0.5
            }
        },
        {
            "doubleSided" : true,
            "name" : "black",
            "pbrMetallicRoughness" : {
                "baseColorFactor" : [
                    0.009822015650570393,
                    0.009822015650570393,
                    0.009822015650570393,
                    1
                ],
                "metallicFactor" : 0,
                "roughnessFactor" : 0.5
            }
        }
    ],
    "meshes" : [
        {
            "name" : "dude",
            "primitives" : [
                {
                    "attributes" : {
                        "POSITION" : 0,
                        "NORMAL" : 1,
                        "COLOR_0" : 2
                    },
                    "indices" : 3,
                    "material" : 0
                },
                {
                    "attributes" : {
                        "POSITION" : 4,
                        "NORMAL" : 5,
                        "COLOR_0" : 6
                    },
                    "indices" : 7,
                    "material" : 1
                }
            ]
        },
        {
            "name" : "Plane",
            "primitives" : [
                {
                    "attributes" : {
                        "POSITION" : 8,
                        "NORMAL" : 9,
                        "TEXCOORD_0" : 10
                    },
                    "indices" : 11
                }
            ]
        }
    ],
    "accessors" : [
        {
            "bufferView" : 0,
            "componentType" : 5126,
            "count" : 13344,
            "max" : [
                0.582055389881134,
                1.982475996017456,
                0.34791406989097595
            ],
            "min" : [
                -0.5820553302764893,
                0.005923442076891661,
                -0.37021321058273315
            ],
            "type" : "VEC3"
        },
        {
            "bufferView" : 1,
            "componentType" : 5126,
            "count" : 13344,
            "type" : "VEC3"
        },
        {
            "bufferView" : 2,
            "componentType" : 5123,
            "count" : 13344,
            "normalized" : true,
            "type" : "VEC4"
        },
        {
            "bufferView" : 3,
            "componentType" : 5123,
            "count" : 79872,
            "type" : "SCALAR"
        },
        {
            "bufferView" : 4,
            "componentType" : 5126,
            "count" : 674,
            "max" : [
                0.09127499163150787,
                1.8678165674209595,
                0.14036348462104797
            ],
            "min" : [
                -0.09127499163150787,
                1.788262963294983,
                0.08579248189926147
            ],
            "type" : "VEC3"
        },
        {
            "bufferView" : 5,
            "componentType" : 5126,
            "count" : 674,
            "type" : "VEC3"
        },
        {
            "bufferView" : 6,
            "componentType" : 5123,
            "count" : 674,
            "normalized" : true,
            "type" : "VEC4"
        },
        {
            "bufferView" : 7,
            "componentType" : 5123,
            "count" : 3840,
            "type" : "SCALAR"
        },
        {
            "bufferView" : 8,
            "componentType" : 5126,
            "count" : 4,
            "max" : [
                1,
                0,
                1
            ],
            "min" : [
                -1,
                0,
                -1
            ],
            "type" : "VEC3"
        },
        {
            "bufferView" : 9,
            "componentType" : 5126,
            "count" : 4,
            "type" : "VEC3"
        },
        {
            "bufferView" : 10,
            "componentType" : 5126,
            "count" : 4,
            "type" : "VEC2"
        },
        {
            "bufferView" : 11,
            "componentType" : 5123,
            "count" : 6,
            "type" : "SCALAR"
        }
    ],
    "bufferViews" : [
        {
            "buffer" : 0,
            "byteLength" : 160128,
            "byteOffset" : 0
        },
        {
            "buffer" : 0,
            "byteLength" : 160128,
            "byteOffset" : 160128
        },
        {
            "buffer" : 0,
            "byteLength" : 106752,
            "byteOffset" : 320256
        },
        {
            "buffer" : 0,
            "byteLength" : 159744,
            "byteOffset" : 427008
        },
        {
            "buffer" : 0,
            "byteLength" : 8088,
            "byteOffset" : 586752
        },
        {
            "buffer" : 0,
            "byteLength" : 8088,
            "byteOffset" : 594840
        },
        {
            "buffer" : 0,
            "byteLength" : 5392,
            "byteOffset" : 602928
        },
        {
            "buffer" : 0,
            "byteLength" : 7680,
            "byteOffset" : 608320
        },
        {
            "buffer" : 0,
            "byteLength" : 48,
            "byteOffset" : 616000
        },
        {
            "buffer" : 0,
            "byteLength" : 48,
            "byteOffset" : 616048
        },
        {
            "buffer" : 0,
            "byteLength" : 32,
            "byteOffset" : 616096
        },
        {
            "buffer" : 0,
            "byteLength" : 12,
            "byteOffset" : 616128
        }
    ],
    "buffers" : [
        {
            "byteLength" : 616140,
            "uri" : "phantom_objects2.bin"
        }
    ]
}
