{
    "asset" : {
        "generator" : "Khronos glTF Blender I/O v1.6.16",
        "version" : "2.0"
    },
    "scene" : 0,
    "scenes" : [
        {
            "name" : "Scene",
            "nodes" : [
                0,
                1,
                2
            ]
        }
    ],
    "nodes" : [
        {
            "mesh" : 0,
            "name" : "Icosphere",
            "translation" : [
                0,
                3.138864755630493,
                0
            ]
        },
        {
            "mesh" : 1,
            "name" : "dude"
        },
        {
            "mesh" : 2,
            "name" : "Plane",
            "scale" : [
                4.992655277252197,
                4.992655277252197,
                4.992655277252197
            ]
        }
    ],
    "materials" : [
        {
            "doubleSided" : true,
            "name" : "Material",
            "pbrMetallicRoughness" : {
                "baseColorFactor" : [
                    0.36463797092437744,
                    0.36463797092437744,
                    0.36463797092437744,
                    1
                ],
                "metallicFactor" : 0,
                "roughnessFactor" : 0.5
            }
        },
        {
            "doubleSided" : true,
            "name" : "black",
            "pbrMetallicRoughness" : {
                "baseColorFactor" : [
                    0.009822015650570393,
                    0.009822015650570393,
                    0.009822015650570393,
                    1
                ],
                "metallicFactor" : 0,
                "roughnessFactor" : 0.5
            }
        }
    ],
    "meshes" : [
        {
            "name" : "Icosphere",
            "primitives" : [
                {
                    "attributes" : {
                        "POSITION" : 0,
                        "NORMAL" : 1,
                        "TEXCOORD_0" : 2
                    },
                    "indices" : 3
                }
            ]
        },
        {
            "name" : "dude",
            "primitives" : [
                {
                    "attributes" : {
                        "POSITION" : 4,
                        "NORMAL" : 5,
                        "COLOR_0" : 6
                    },
                    "indices" : 7,
                    "material" : 0
                },
                {
                    "attributes" : {
                        "POSITION" : 8,
                        "NORMAL" : 9,
                        "COLOR_0" : 10
                    },
                    "indices" : 11,
                    "material" : 1
                }
            ]
        },
        {
            "name" : "Plane",
            "primitives" : [
                {
                    "attributes" : {
                        "POSITION" : 12,
                        "NORMAL" : 13,
                        "TEXCOORD_0" : 14
                    },
                    "indices" : 15
                }
            ]
        }
    ],
    "accessors" : [
        {
            "bufferView" : 0,
            "componentType" : 5126,
            "count" : 240,
            "max" : [
                0.9510578513145447,
                1,
                0.9999999403953552
            ],
            "min" : [
                -0.9510578513145447,
                -1,
                -0.9999999403953552
            ],
            "type" : "VEC3"
        },
        {
            "bufferView" : 1,
            "componentType" : 5126,
            "count" : 240,
            "type" : "VEC3"
        },
        {
            "bufferView" : 2,
            "componentType" : 5126,
            "count" : 240,
            "type" : "VEC2"
        },
        {
            "bufferView" : 3,
            "componentType" : 5123,
            "count" : 240,
            "type" : "SCALAR"
        },
        {
            "bufferView" : 4,
            "componentType" : 5126,
            "count" : 13344,
            "max" : [
                0.582055389881134,
                1.982475996017456,
                0.34791406989097595
            ],
            "min" : [
                -0.5820553302764893,
                0.005923442076891661,
                -0.37021321058273315
            ],
            "type" : "VEC3"
        },
        {
            "bufferView" : 5,
            "componentType" : 5126,
            "count" : 13344,
            "type" : "VEC3"
        },
        {
            "bufferView" : 6,
            "componentType" : 5123,
            "count" : 13344,
            "normalized" : true,
            "type" : "VEC4"
        },
        {
            "bufferView" : 7,
            "componentType" : 5123,
            "count" : 79872,
            "type" : "SCALAR"
        },
        {
            "bufferView" : 8,
            "componentType" : 5126,
            "count" : 674,
            "max" : [
                0.09127499163150787,
                1.8678165674209595,
                0.14036348462104797
            ],
            "min" : [
                -0.09127499163150787,
                1.788262963294983,
                0.08579248189926147
            ],
            "type" : "VEC3"
        },
        {
            "bufferView" : 9,
            "componentType" : 5126,
            "count" : 674,
            "type" : "VEC3"
        },
        {
            "bufferView" : 10,
            "componentType" : 5123,
            "count" : 674,
            "normalized" : true,
            "type" : "VEC4"
        },
        {
            "bufferView" : 11,
            "componentType" : 5123,
            "count" : 3840,
            "type" : "SCALAR"
        },
        {
            "bufferView" : 12,
            "componentType" : 5126,
            "count" : 4,
            "max" : [
                1,
                0,
                1
            ],
            "min" : [
                -1,
                0,
                -1
            ],
            "type" : "VEC3"
        },
        {
            "bufferView" : 13,
            "componentType" : 5126,
            "count" : 4,
            "type" : "VEC3"
        },
        {
            "bufferView" : 14,
            "componentType" : 5126,
            "count" : 4,
            "type" : "VEC2"
        },
        {
            "bufferView" : 15,
            "componentType" : 5123,
            "count" : 6,
            "type" : "SCALAR"
        }
    ],
    "bufferViews" : [
        {
            "buffer" : 0,
            "byteLength" : 2880,
            "byteOffset" : 0
        },
        {
            "buffer" : 0,
            "byteLength" : 2880,
            "byteOffset" : 2880
        },
        {
            "buffer" : 0,
            "byteLength" : 1920,
            "byteOffset" : 5760
        },
        {
            "buffer" : 0,
            "byteLength" : 480,
            "byteOffset" : 7680
        },
        {
            "buffer" : 0,
            "byteLength" : 160128,
            "byteOffset" : 8160
        },
        {
            "buffer" : 0,
            "byteLength" : 160128,
            "byteOffset" : 168288
        },
        {
            "buffer" : 0,
            "byteLength" : 106752,
            "byteOffset" : 328416
        },
        {
            "buffer" : 0,
            "byteLength" : 159744,
            "byteOffset" : 435168
        },
        {
            "buffer" : 0,
            "byteLength" : 8088,
            "byteOffset" : 594912
        },
        {
            "buffer" : 0,
            "byteLength" : 8088,
            "byteOffset" : 603000
        },
        {
            "buffer" : 0,
            "byteLength" : 5392,
            "byteOffset" : 611088
        },
        {
            "buffer" : 0,
            "byteLength" : 7680,
            "byteOffset" : 616480
        },
        {
            "buffer" : 0,
            "byteLength" : 48,
            "byteOffset" : 624160
        },
        {
            "buffer" : 0,
            "byteLength" : 48,
            "byteOffset" : 624208
        },
        {
            "buffer" : 0,
            "byteLength" : 32,
            "byteOffset" : 624256
        },
        {
            "buffer" : 0,
            "byteLength" : 12,
            "byteOffset" : 624288
        }
    ],
    "buffers" : [
        {
            "byteLength" : 624300,
            "uri" : "phantom_objects2.bin"
        }
    ]
}
