{
    "asset": {
        "generator": "Khronos glTF Blender I/O v1.6.16",
        "version": "2.0"
    },
    "scene": 0,
    "scenes": [
        {
            "name": "Scene",
            "nodes": [
                0
            ]
        }
    ],
    "nodes": [
        {
            "mesh": 0,
            "name": "dude",
            "translation": [
                0,
                -0.027287572622299194,
                0
            ]
        }
    ],
    "materials": [
        {
            "doubleSided": true,
            "name": "Material",
            "pbrMetallicRoughness": {
                "baseColorFactor": [
                    0.36463797092437744,
                    0.36463797092437744,
                    0.36463797092437744,
                    1
                ],
                "metallicFactor": 0,
                "roughnessFactor": 0.5
            }
        },
        {
            "doubleSided": true,
            "name": "black",
            "pbrMetallicRoughness": {
                "baseColorFactor": [
                    0.009822015650570393,
                    0.009822015650570393,
                    0.009822015650570393,
                    1
                ],
                "metallicFactor": 0,
                "roughnessFactor": 0.5
            }
        }
    ],
    "meshes": [
        {
            "name": "dude",
            "primitives": [
                {
                    "attributes": {
                        "POSITION": 0,
                        "NORMAL": 1,
                        "COLOR_0": 2
                    },
                    "indices": 3,
                    "material": 0
                },
                {
                    "attributes": {
                        "POSITION": 4,
                        "NORMAL": 5,
                        "COLOR_0": 6
                    },
                    "indices": 7,
                    "material": 1
                }
            ]
        }
    ],
    "accessors": [
        {
            "bufferView": 0,
            "componentType": 5126,
            "count": 3344,
            "max": [
                0.5733816027641296,
                1.9809372425079346,
                0.34250926971435547
            ],
            "min": [
                -0.5733816623687744,
                0.0331248864531517,
                -0.3648300766944885
            ],
            "type": "VEC3"
        },
        {
            "bufferView": 1,
            "componentType": 5126,
            "count": 3344,
            "type": "VEC3"
        },
        {
            "bufferView": 2,
            "componentType": 5123,
            "count": 3344,
            "normalized": true,
            "type": "VEC4"
        },
        {
            "bufferView": 3,
            "componentType": 5123,
            "count": 19968,
            "type": "SCALAR"
        },
        {
            "bufferView": 4,
            "componentType": 5126,
            "count": 178,
            "max": [
                0.08994778990745544,
                1.8679450750350952,
                0.13832251727581024
            ],
            "min": [
                -0.08994778990745544,
                1.7895482778549194,
                0.08524327725172043
            ],
            "type": "VEC3"
        },
        {
            "bufferView": 5,
            "componentType": 5126,
            "count": 178,
            "type": "VEC3"
        },
        {
            "bufferView": 6,
            "componentType": 5123,
            "count": 178,
            "normalized": true,
            "type": "VEC4"
        },
        {
            "bufferView": 7,
            "componentType": 5123,
            "count": 960,
            "type": "SCALAR"
        }
    ],
    "bufferViews": [
        {
            "buffer": 0,
            "byteLength": 40128,
            "byteOffset": 0
        },
        {
            "buffer": 0,
            "byteLength": 40128,
            "byteOffset": 40128
        },
        {
            "buffer": 0,
            "byteLength": 26752,
            "byteOffset": 80256
        },
        {
            "buffer": 0,
            "byteLength": 39936,
            "byteOffset": 107008
        },
        {
            "buffer": 0,
            "byteLength": 2136,
            "byteOffset": 146944
        },
        {
            "buffer": 0,
            "byteLength": 2136,
            "byteOffset": 149080
        },
        {
            "buffer": 0,
            "byteLength": 1424,
            "byteOffset": 151216
        },
        {
            "buffer": 0,
            "byteLength": 1920,
            "byteOffset": 152640
        }
    ],
    "buffers": [
        {
            "byteLength": 154560,
            "uri": "phantom.bin"
        }
    ]
}