{
    "asset": {
        "generator": "Khronos glTF Blender I/O v1.6.16",
        "version": "2.0"
    },
    "scene": 0,
    "scenes": [
        {
            "name": "Scene",
            "nodes": [
                4,
                5
            ]
        }
    ],
    "nodes": [
        {
            "mesh": 0,
            "name": "Object_2"
        },
        {
            "mesh": 1,
            "name": "Object_4"
        },
        {
            "mesh": 2,
            "name": "Object_5"
        },
        {
            "children": [
                0,
                1,
                2
            ],
            "name": "Pony_cartoon.obj.cleaner"
        },
        {
            "children": [
                3
            ],
            "name": "Sketchfab_model",
            "rotation": [
                -0.7071068286895752,
                0,
                0,
                0.7071068286895752
            ],
            "scale": [
                0.008921594358980656,
                0.008921141736209393,
                0.008921141736209393
            ]
        },
        {
            "name": "Light",
            "rotation": [
                0.16907575726509094,
                0.7558803558349609,
                -0.27217137813568115,
                0.570947527885437
            ],
            "translation": [
                4.076245307922363,
                5.903861999511719,
                -1.0054539442062378
            ]
        }
    ],
    "materials": [
        {
            "doubleSided": true,
            "emissiveFactor": [
                1,
                1,
                1
            ],
            "name": "Body_SG1",
            "pbrMetallicRoughness": {}
        },
        {
            "doubleSided": true,
            "name": "Interior_SG",
            "pbrMetallicRoughness": {}
        },
        {
            "alphaMode": "BLEND",
            "doubleSided": true,
            "name": "Windows_SG",
            "pbrMetallicRoughness": {
                "baseColorFactor": [
                    1,
                    1,
                    1,
                    0.7300000190734863
                ],
                "metallicFactor": 0
            }
        }
    ],
    "meshes": [
        {
            "name": "Object_0",
            "primitives": [
                {
                    "attributes": {
                        "POSITION": 0,
                        "NORMAL": 1,
                        "TEXCOORD_0": 2
                    },
                    "indices": 3,
                    "material": 0
                }
            ]
        },
        {
            "name": "Object_2",
            "primitives": [
                {
                    "attributes": {
                        "POSITION": 4,
                        "NORMAL": 5,
                        "TEXCOORD_0": 6
                    },
                    "indices": 7,
                    "material": 1
                }
            ]
        },
        {
            "name": "Object_3",
            "primitives": [
                {
                    "attributes": {
                        "POSITION": 8,
                        "NORMAL": 9,
                        "TEXCOORD_0": 10
                    },
                    "indices": 11,
                    "material": 2
                }
            ]
        }
    ],
    "accessors": [
        {
            "bufferView": 0,
            "componentType": 5126,
            "count": 3818,
            "max": [
                211.9060516357422,
                345.7454833984375,
                373.66162109375
            ],
            "min": [
                -191.2209930419922,
                -319.2413635253906,
                -0.9747340083122253
            ],
            "type": "VEC3"
        },
        {
            "bufferView": 1,
            "componentType": 5126,
            "count": 3818,
            "type": "VEC3"
        },
        {
            "bufferView": 2,
            "componentType": 5126,
            "count": 3818,
            "type": "VEC2"
        },
        {
            "bufferView": 3,
            "componentType": 5123,
            "count": 17814,
            "type": "SCALAR"
        },
        {
            "bufferView": 4,
            "componentType": 5126,
            "count": 1528,
            "max": [
                152.65972900390625,
                246.80709838867188,
                250.7470703125
            ],
            "min": [
                -152.65994262695312,
                -163.09568786621094,
                55.08576583862305
            ],
            "type": "VEC3"
        },
        {
            "bufferView": 5,
            "componentType": 5126,
            "count": 1528,
            "type": "VEC3"
        },
        {
            "bufferView": 6,
            "componentType": 5126,
            "count": 1528,
            "type": "VEC2"
        },
        {
            "bufferView": 7,
            "componentType": 5123,
            "count": 6744,
            "type": "SCALAR"
        },
        {
            "bufferView": 8,
            "componentType": 5126,
            "count": 174,
            "max": [
                153.28758239746094,
                228.1385498046875,
                345.7152404785156
            ],
            "min": [
                -153.28758239746094,
                -134.83203125,
                216.74916076660156
            ],
            "type": "VEC3"
        },
        {
            "bufferView": 9,
            "componentType": 5126,
            "count": 174,
            "type": "VEC3"
        },
        {
            "bufferView": 10,
            "componentType": 5126,
            "count": 174,
            "type": "VEC2"
        },
        {
            "bufferView": 11,
            "componentType": 5123,
            "count": 450,
            "type": "SCALAR"
        }
    ],
    "bufferViews": [
        {
            "buffer": 0,
            "byteLength": 45816,
            "byteOffset": 0
        },
        {
            "buffer": 0,
            "byteLength": 45816,
            "byteOffset": 45816
        },
        {
            "buffer": 0,
            "byteLength": 30544,
            "byteOffset": 91632
        },
        {
            "buffer": 0,
            "byteLength": 35628,
            "byteOffset": 122176
        },
        {
            "buffer": 0,
            "byteLength": 18336,
            "byteOffset": 157804
        },
        {
            "buffer": 0,
            "byteLength": 18336,
            "byteOffset": 176140
        },
        {
            "buffer": 0,
            "byteLength": 12224,
            "byteOffset": 194476
        },
        {
            "buffer": 0,
            "byteLength": 13488,
            "byteOffset": 206700
        },
        {
            "buffer": 0,
            "byteLength": 2088,
            "byteOffset": 220188
        },
        {
            "buffer": 0,
            "byteLength": 2088,
            "byteOffset": 222276
        },
        {
            "buffer": 0,
            "byteLength": 1392,
            "byteOffset": 224364
        },
        {
            "buffer": 0,
            "byteLength": 900,
            "byteOffset": 225756
        }
    ],
    "buffers": [
        {
            "byteLength": 226656,
            "uri": "scene.bin"
        }
    ]
}